# 3ds Max Wavefront OBJ Exporter v0.97b - (c)2007 guruware
# File Created: 08.12.2017 20:13:54

mtllib Autocannon.mtl

#
# object OilTank001
#

v  3.3557 -14.6168 3.9005
v  4.7711 -14.1510 3.9005
v  4.2382 -14.1510 5.0070
v  3.0408 -14.1510 5.2803
v  2.0806 -14.1510 4.5146
v  2.0806 -14.1510 3.2864
v  3.0408 -14.1510 2.5206
v  4.2382 -14.1510 2.7939
v  5.9923 -12.8176 3.9005
v  4.9996 -12.8176 5.9618
v  2.7691 -12.8176 6.4709
v  0.9803 -12.8176 5.0444
v  0.9803 -12.8176 2.7565
v  2.7691 -12.8176 1.3301
v  4.9996 -12.8176 1.8392
v  5.9923 12.1979 3.9005
v  4.9996 12.1979 5.9618
v  2.7691 12.1979 6.4709
v  0.9803 12.1979 5.0444
v  0.9803 12.1979 2.7565
v  2.7691 12.1979 1.3301
v  4.9996 12.1979 1.8392
v  5.0495 81.5970 3.9005
v  4.2570 82.9304 3.9004
v  3.9176 82.9304 4.6051
v  4.4118 81.5970 5.2247
v  3.1552 82.9304 4.7791
v  2.9789 81.5970 5.5517
v  2.5437 82.9304 4.2915
v  1.8298 81.5970 4.6353
v  2.5437 82.9304 3.5094
v  1.8298 81.5970 3.1656
v  3.1552 82.9304 3.0217
v  2.9789 81.5970 2.2492
v  3.9176 82.9304 3.1958
v  4.4118 81.5970 2.5763
v  4.2570 80.9063 3.9004
v  3.3557 81.3721 3.9004
v  3.9176 80.9063 4.6051
v  3.1552 80.9063 4.7791
v  2.5437 80.9063 4.2915
v  2.5437 80.9063 3.5094
v  3.1552 80.9063 3.0217
v  3.9176 80.9063 3.1958
v  4.5210 13.2501 3.9005
v  4.0823 13.2501 4.8115
v  3.0965 13.2501 5.0365
v  2.3059 13.2501 4.4060
v  2.3059 13.2501 3.3949
v  3.0965 13.2501 2.7645
v  4.0823 13.2501 2.9895
v  4.5210 75.7440 3.9005
v  4.0823 75.7440 4.8115
v  3.0965 75.7440 5.0365
v  2.3059 75.7440 4.4060
v  2.3059 75.7440 3.3949
v  3.0965 75.7440 2.7645
v  4.0823 75.7440 2.9895
v  5.0495 76.1312 3.9005
v  4.4118 76.1312 5.2247
v  2.9789 76.1312 5.5517
v  1.8298 76.1312 4.6353
v  1.8298 76.1312 3.1656
v  2.9789 76.1312 2.2492
v  4.4118 76.1312 2.5763
v  3.3557 -14.6168 9.9213
v  4.7711 -14.1510 9.9213
v  4.2382 -14.1510 11.0278
v  3.0408 -14.1510 11.3011
v  2.0806 -14.1510 10.5354
v  2.0806 -14.1510 9.3072
v  3.0408 -14.1510 8.5414
v  4.2382 -14.1510 8.8147
v  5.9923 -12.8176 9.9213
v  4.9996 -12.8176 11.9826
v  2.7691 -12.8176 12.4917
v  0.9803 -12.8176 11.0652
v  0.9803 -12.8176 8.7774
v  2.7691 -12.8176 7.3509
v  4.9996 -12.8176 7.8600
v  5.9923 12.1979 9.9213
v  4.9996 12.1979 11.9826
v  2.7691 12.1979 12.4917
v  0.9803 12.1979 11.0652
v  0.9803 12.1979 8.7774
v  2.7691 12.1979 7.3509
v  4.9996 12.1979 7.8600
v  5.0495 81.5970 9.9213
v  4.2570 82.9304 9.9212
v  3.9176 82.9304 10.6259
v  4.4118 81.5970 11.2455
v  3.1552 82.9304 10.7999
v  2.9789 81.5970 11.5725
v  2.5437 82.9304 10.3123
v  1.8298 81.5970 10.6562
v  2.5437 82.9304 9.5302
v  1.8298 81.5970 9.1864
v  3.1552 82.9304 9.0426
v  2.9789 81.5970 8.2701
v  3.9176 82.9304 9.2166
v  4.4118 81.5970 8.5971
v  4.2570 80.9063 9.9212
v  3.3557 81.3721 9.9212
v  3.9176 80.9063 10.6259
v  3.1552 80.9063 10.7999
v  2.5437 80.9063 10.3123
v  2.5437 80.9063 9.5302
v  3.1552 80.9063 9.0426
v  3.9176 80.9063 9.2166
v  4.5210 13.2501 9.9213
v  4.0823 13.2501 10.8323
v  3.0965 13.2501 11.0573
v  2.3059 13.2501 10.4269
v  2.3059 13.2501 9.4157
v  3.0965 13.2501 8.7853
v  4.0823 13.2501 9.0103
v  4.5210 75.7440 9.9213
v  4.0823 75.7440 10.8323
v  3.0965 75.7440 11.0573
v  2.3059 75.7440 10.4269
v  2.3059 75.7440 9.4157
v  3.0965 75.7440 8.7853
v  4.0823 75.7440 9.0103
v  5.0495 76.1312 9.9213
v  4.4118 76.1312 11.2455
v  2.9789 76.1312 11.5725
v  1.8298 76.1312 10.6562
v  1.8298 76.1312 9.1864
v  2.9789 76.1312 8.2700
v  4.4118 76.1312 8.5971
v  0.4008 7.8155 13.6372
v  0.4008 3.5321 13.6372
v  6.1660 3.5321 13.6372
v  6.1660 7.8155 13.6372
v  0.4008 8.6520 13.0325
v  -0.1862 7.8155 13.0325
v  -0.1862 3.5321 13.0325
v  0.4008 -10.1955 14.1479
v  -0.1862 -10.1955 13.0325
v  0.4008 -11.0320 13.0325
v  6.1660 -11.0320 13.0325
v  6.1660 -10.1955 14.1479
v  6.8532 -10.1955 13.0325
v  6.8532 -3.5095 13.0325
v  6.1660 -3.5095 14.1479
v  6.8532 7.8155 13.0325
v  6.1660 8.6520 13.0325
v  0.4008 8.6520 7.5485
v  -0.1862 7.8155 7.5485
v  -0.1862 3.5321 7.5485
v  -0.1862 -10.1955 7.5485
v  0.4008 -11.0320 7.5485
v  6.1660 -11.0320 7.5485
v  6.8532 -10.1955 7.5485
v  6.8532 -3.5095 7.5485
v  6.8532 7.8155 7.5485
v  6.1660 8.6520 7.5485
v  0.4008 8.6520 1.1199
v  0.4008 7.8155 0.0046
v  -0.1862 7.8155 1.1199
v  0.4008 3.5321 0.0046
v  -0.1862 3.5321 1.1199
v  -0.1862 -10.1955 1.1199
v  0.4008 -10.1955 0.0046
v  0.4008 -11.0320 1.1199
v  6.1660 -10.1955 0.0046
v  6.1660 -11.0320 1.1199
v  6.8532 -10.1955 1.1199
v  6.1660 -3.5095 0.0046
v  6.8532 -3.5095 1.1199
v  6.8532 7.8155 1.1199
v  6.1660 7.8155 0.0046
v  6.1660 8.6520 1.1199
v  6.1660 3.5321 0.0046
v  0.4008 2.6860 14.1479
v  6.1660 2.6860 14.1479
v  -1.1676 2.6860 13.0325
v  6.8532 3.5321 13.0325
v  -0.1862 2.6860 1.1199
v  -0.1862 2.6860 6.2830
v  -0.1862 3.5321 6.2830
v  6.8532 3.5321 1.1199
v  6.8532 7.8155 6.2830
v  6.8532 3.5321 6.2830
v  0.4008 2.6860 0.0046
v  6.1660 2.6860 0.0046
v  6.8532 2.6860 13.0325
v  6.8532 2.6860 1.1199
v  6.8532 2.6860 6.2830
v  0.4008 -1.6053 14.1479
v  6.1660 -1.6053 14.1479
v  -1.1676 -1.6053 13.0325
v  -0.1862 -1.6053 1.1199
v  -0.1862 -1.6053 6.2830
v  0.4008 -1.6053 0.0046
v  6.1660 -1.6053 0.0046
v  6.8532 -1.6053 13.0325
v  6.8532 -1.6053 1.1199
v  6.8532 -1.6053 6.2830
v  6.8532 -3.5095 6.2830
v  0.4008 -3.5095 14.1479
v  -0.1862 -3.5095 13.0325
v  -0.1862 -3.5095 1.1199
v  -0.1862 -10.1955 6.2830
v  -0.1862 -3.5095 6.2830
v  0.4008 -3.5095 0.0046
v  0.4008 8.6520 6.2830
v  -0.1862 7.8155 6.2830
v  0.4008 -11.0320 6.2830
v  6.1660 -11.0320 6.2830
v  6.8532 -10.1955 6.2830
v  6.1660 8.6520 6.2830
v  -1.1676 2.6860 7.5485
v  6.8532 3.5321 7.5485
v  6.8532 2.6860 7.5485
v  -1.1676 -1.6053 7.5485
v  6.8532 -1.6053 7.5485
v  -0.1862 -3.5095 7.5485
# 218 vertices

vn -0.0000 -1.0000 -0.0000
vn 0.5893 -0.8079 0.0000
vn 0.3674 -0.8079 0.4607
vn -0.1311 -0.8079 0.5745
vn -0.5310 -0.8079 0.2557
vn -0.5310 -0.8079 -0.2557
vn -0.1311 -0.8079 -0.5745
vn 0.3674 -0.8079 -0.4607
vn 0.9432 -0.3323 0.0000
vn 0.5881 -0.3323 0.7374
vn -0.2099 -0.3323 0.9195
vn -0.8498 -0.3323 0.4092
vn -0.8498 -0.3323 -0.4092
vn -0.2099 -0.3323 -0.9195
vn 0.5881 -0.3323 -0.7374
vn 0.9110 0.4125 0.0000
vn 0.5680 0.4125 0.7122
vn -0.2027 0.4125 0.8881
vn -0.8207 0.4125 0.3952
vn -0.8207 0.4125 -0.3952
vn -0.2027 0.4125 -0.8881
vn 0.5680 0.4125 -0.7122
vn 0.9688 0.2479 -0.0000
vn 0.0117 0.9999 -0.0000
vn 0.0073 0.9999 0.0092
vn 0.6040 0.2479 0.7574
vn -0.0026 0.9999 0.0114
vn -0.2156 0.2479 0.9445
vn -0.0106 0.9999 0.0051
vn -0.8728 0.2479 0.4203
vn -0.0106 0.9999 -0.0051
vn -0.8728 0.2479 -0.4203
vn -0.0026 0.9999 -0.0115
vn -0.2156 0.2479 -0.9445
vn 0.0073 0.9999 -0.0092
vn 0.6041 0.2479 -0.7574
vn -0.6571 0.7538 -0.0000
vn 0.0000 1.0000 0.0000
vn -0.4097 0.7538 -0.5137
vn 0.1462 0.7538 -0.6406
vn 0.5920 0.7538 -0.2851
vn 0.5920 0.7538 0.2851
vn 0.1462 0.7538 0.6406
vn -0.4097 0.7538 0.5137
vn 0.8553 0.5182 0.0000
vn 0.5333 0.5182 0.6687
vn -0.1903 0.5182 0.8338
vn -0.7706 0.5182 0.3711
vn -0.7706 0.5182 -0.3711
vn -0.1903 0.5182 -0.8338
vn 0.5333 0.5182 -0.6687
vn 0.8591 -0.5118 0.0000
vn 0.5357 -0.5118 0.6717
vn -0.1912 -0.5118 0.8376
vn -0.7740 -0.5118 0.3728
vn -0.7740 -0.5118 -0.3728
vn -0.1912 -0.5118 -0.8376
vn 0.5356 -0.5117 -0.6717
vn 0.9129 -0.4082 -0.0000
vn 0.5692 -0.4083 0.7137
vn -0.2032 -0.4082 0.8900
vn -0.8225 -0.4082 0.3961
vn -0.8225 -0.4082 -0.3961
vn -0.2032 -0.4082 -0.8900
vn 0.5692 -0.4082 -0.7137
vn 0.5893 -0.8079 -0.0000
vn 0.9110 0.4125 -0.0000
vn 0.9688 0.2479 0.0000
vn -0.2155 0.2479 0.9445
vn -0.8729 0.2479 0.4203
vn -0.8729 0.2479 -0.4203
vn -0.2155 0.2479 -0.9445
vn 0.6040 0.2479 -0.7574
vn -0.6571 0.7538 0.0000
vn 0.0000 1.0000 -0.0000
vn 0.8553 0.5182 -0.0000
vn 0.8591 -0.5118 -0.0000
vn 0.5357 -0.5118 -0.6717
vn 0.5692 -0.4082 0.7137
vn -0.2031 -0.4082 0.8900
vn -0.2031 -0.4082 -0.8900
vn -0.3566 0.2752 0.8928
vn -0.4029 0.2613 0.8772
vn 0.3623 0.2650 0.8936
vn 0.3239 0.2789 0.9040
vn -0.4006 0.8271 0.3943
vn -0.8987 0.2707 0.3451
vn -0.8222 0.4282 0.3749
vn -0.4500 -0.3798 0.8083
vn -0.9328 -0.2836 0.2225
vn -0.4198 -0.8651 0.2746
vn 0.3894 -0.8780 0.2784
vn 0.4245 -0.3839 0.8200
vn 0.9164 -0.3133 0.2490
vn 0.9621 -0.0000 0.2726
vn 0.4875 -0.0000 0.8731
vn 0.8785 0.2983 0.3731
vn 0.3711 0.8385 0.3990
vn -0.4613 0.8873 0.0000
vn -0.9536 0.3012 0.0000
vn -0.9091 0.4165 0.0000
vn -0.9536 -0.3012 -0.0000
vn -0.4613 -0.8873 -0.0000
vn 0.4273 -0.9041 -0.0000
vn 0.9414 -0.3372 -0.0000
vn 1.0000 0.0000 0.0000
vn 0.9414 0.3372 0.0000
vn 0.4273 0.9041 0.0000
vn -0.4198 0.8651 -0.2745
vn -0.4501 0.3797 -0.8082
vn -0.9328 0.2836 -0.2225
vn -0.5168 0.0000 -0.8561
vn -0.9708 0.0000 -0.2399
vn -0.9328 -0.2836 -0.2225
vn -0.4501 -0.3797 -0.8082
vn -0.4198 -0.8651 -0.2745
vn 0.4245 -0.3838 -0.8200
vn 0.3895 -0.8780 -0.2783
vn 0.9164 -0.3133 -0.2490
vn 0.4875 -0.0000 -0.8731
vn 0.9621 -0.0000 -0.2726
vn 0.9164 0.3133 -0.2490
vn 0.4245 0.3838 -0.8200
vn 0.3895 0.8780 -0.2783
vn 0.4875 0.0000 -0.8731
vn -0.2838 0.2479 0.9263
vn 0.4502 0.2305 0.8627
vn -0.8406 0.3614 0.4035
vn 0.9112 -0.0000 0.4120
vn -0.9461 0.0000 -0.3239
vn -1.0000 0.0000 0.0000
vn 0.9621 0.0000 -0.2726
vn -0.3042 -0.0000 0.9526
vn -0.8800 -0.2055 0.4282
vn -0.9708 -0.0000 -0.2399
vn -0.9461 -0.0000 -0.3239
vn 0.9621 0.0000 0.2726
vn -0.5168 -0.0000 0.8561
vn -0.9409 -0.2372 0.2417
vn -0.8801 0.3788 -0.2862
vn -0.9274 -0.2170 -0.3048
vn -0.9718 -0.2357 -0.0000
# 142 vertex normals

vt 0.5000 0.5000 0.0000
vt 0.7684 0.5000 0.0000
vt 0.6674 0.7099 0.0000
vt 0.4403 0.7617 0.0000
vt 0.2582 0.6165 0.0000
vt 0.2582 0.3835 0.0000
vt 0.4403 0.2383 0.0000
vt 0.6674 0.2901 0.0000
vt 1.0000 0.5000 0.0000
vt 0.8117 0.8909 0.0000
vt 0.3887 0.9875 0.0000
vt 0.0495 0.7169 0.0000
vt 0.0495 0.2831 0.0000
vt 0.3887 0.0125 0.0000
vt 0.8117 0.1091 0.0000
vt 0.0000 1.0000 0.0000
vt 0.0000 0.7350 0.0000
vt 0.1429 0.7350 0.0000
vt 0.1429 1.0000 0.0000
vt 0.2857 0.7350 0.0000
vt 0.2857 1.0000 0.0000
vt 0.4286 0.7350 0.0000
vt 0.4286 1.0000 0.0000
vt 0.5714 0.7350 0.0000
vt 0.5714 1.0000 0.0000
vt 0.7143 0.7350 0.0000
vt 0.7143 1.0000 0.0000
vt 0.8571 0.7350 0.0000
vt 0.8571 1.0000 0.0000
vt 1.0000 0.7350 0.0000
vt 1.0000 1.0000 0.0000
vt 0.0000 0.7239 0.0000
vt 0.1429 0.7239 0.0000
vt 0.2857 0.7239 0.0000
vt 0.4286 0.7239 0.0000
vt 0.5714 0.7239 0.0000
vt 0.7143 0.7239 0.0000
vt 0.8571 0.7239 0.0000
vt 1.0000 0.7239 0.0000
vt 0.0000 0.0620 0.0000
vt 0.1429 0.0620 0.0000
vt 0.2857 0.0620 0.0000
vt 0.4286 0.0620 0.0000
vt 0.5714 0.0620 0.0000
vt 0.7143 0.0620 0.0000
vt 0.8571 0.0620 0.0000
vt 1.0000 0.0620 0.0000
vt 0.0000 0.0579 0.0000
vt 0.0000 0.0000 0.0000
vt 0.1429 0.0000 0.0000
vt 0.1429 0.0579 0.0000
vt 0.2857 0.0000 0.0000
vt 0.2857 0.0579 0.0000
vt 0.4286 0.0000 0.0000
vt 0.4286 0.0579 0.0000
vt 0.5714 0.0000 0.0000
vt 0.5714 0.0579 0.0000
vt 0.7143 0.0000 0.0000
vt 0.7143 0.0579 0.0000
vt 0.8571 0.0000 0.0000
vt 0.8571 0.0579 0.0000
vt 1.0000 0.0000 0.0000
vt 1.0000 0.0579 0.0000
vt 0.0993 0.9575 0.0000
vt 0.0993 0.7399 0.0000
vt 0.9007 0.7399 0.0000
vt 0.9007 0.9575 0.0000
vt 0.0993 1.0000 0.0000
vt 0.0000 0.9575 0.0000
vt 0.0000 0.7399 0.0000
vt 0.0993 0.0425 0.0000
vt 0.0000 0.0425 0.0000
vt 0.0993 0.0000 0.0000
vt 0.9007 0.0000 0.0000
vt 0.9007 0.0425 0.0000
vt 1.0000 0.0425 0.0000
vt 1.0000 0.3822 0.0000
vt 0.9007 0.3822 0.0000
vt 1.0000 0.9575 0.0000
vt 0.9007 1.0000 0.0000
vt 0.0000 0.5396 0.0000
vt 0.0205 0.5396 0.0000
vt 0.0205 1.0000 0.0000
vt 0.0949 0.5396 0.0000
vt 0.0949 1.0000 0.0000
vt 0.3332 1.0000 0.0000
vt 0.3332 0.5396 0.0000
vt 0.3538 0.5396 0.0000
vt 0.3538 1.0000 0.0000
vt 0.4710 0.5396 0.0000
vt 0.4710 1.0000 0.0000
vt 0.4915 0.5396 0.0000
vt 0.4915 1.0000 0.0000
vt 0.6076 0.5396 0.0000
vt 0.6076 1.0000 0.0000
vt 0.8042 1.0000 0.0000
vt 0.8042 0.5396 0.0000
vt 0.8247 0.5396 0.0000
vt 0.8247 1.0000 0.0000
vt 1.0000 0.5396 0.0000
vt 0.0993 0.2601 0.0000
vt 0.0000 0.2601 0.0000
vt 0.9007 0.6178 0.0000
vt 1.0000 0.6178 0.0000
vt 0.9007 0.2601 0.0000
vt 0.0993 0.6854 0.0000
vt 0.9007 0.6854 0.0000
vt 0.0000 0.6854 0.0000
vt 1.0000 0.7399 0.0000
vt 0.0949 0.0000 0.0000
vt 0.1135 0.0000 0.0000
vt 0.1135 0.4334 0.0000
vt 0.0949 0.4334 0.0000
vt 0.7298 0.0000 0.0000
vt 0.8042 0.0000 0.0000
vt 0.8042 0.4334 0.0000
vt 0.7298 0.4334 0.0000
vt 0.0993 0.3146 0.0000
vt 0.0000 0.3146 0.0000
vt 1.0000 0.2601 0.0000
vt 0.9007 0.3146 0.0000
vt 1.0000 0.6854 0.0000
vt 0.7112 0.0000 0.0000
vt 0.7112 0.4334 0.0000
vt 1.0000 0.3146 0.0000
vt 0.0993 0.4789 0.0000
vt 0.9007 0.4789 0.0000
vt 0.0000 0.4789 0.0000
vt 0.1841 0.0000 0.0000
vt 0.1841 0.4334 0.0000
vt 0.0993 0.5211 0.0000
vt 0.0000 0.5211 0.0000
vt 0.9007 0.5211 0.0000
vt 1.0000 0.4789 0.0000
vt 0.6076 0.0000 0.0000
vt 0.6406 0.0000 0.0000
vt 0.6406 0.4334 0.0000
vt 0.6076 0.4334 0.0000
vt 1.0000 0.5211 0.0000
vt 0.0993 0.3822 0.0000
vt 0.0000 0.3822 0.0000
vt 0.2172 0.0000 0.0000
vt 0.3332 0.0000 0.0000
vt 0.3332 0.4334 0.0000
vt 0.2172 0.4334 0.0000
vt 0.0993 0.6178 0.0000
vt 0.0000 0.6178 0.0000
vt 0.0000 0.4334 0.0000
vt 0.0205 0.4334 0.0000
vt 0.3538 0.4334 0.0000
vt 0.4710 0.4334 0.0000
vt 0.4915 0.4334 0.0000
vt 0.8247 0.4334 0.0000
vt 1.0000 0.4334 0.0000
vt 0.1135 0.5396 0.0000
vt 0.1135 1.0000 0.0000
vt 0.7298 1.0000 0.0000
vt 0.7298 0.5396 0.0000
vt 0.7112 1.0000 0.0000
vt 0.7112 0.5396 0.0000
vt 0.1841 0.5396 0.0000
vt 0.1841 1.0000 0.0000
vt 0.6406 0.5396 0.0000
vt 0.6406 1.0000 0.0000
vt 0.2172 1.0000 0.0000
vt 0.2172 0.5396 0.0000
vt 0.0205 0.0000 0.0000
vt 0.3538 0.0000 0.0000
vt 0.4710 0.0000 0.0000
vt 0.4915 0.0000 0.0000
vt 0.8247 0.0000 0.0000
# 171 texture coords

o OilTank001
g OilTank001
usemtl wire_115115115
s 4
f 1/1/1 2/2/2 3/3/3 
f 1/1/1 3/3/3 4/4/4 
f 1/1/1 4/4/4 5/5/5 
f 1/1/1 5/5/5 6/6/6 
f 1/1/1 6/6/6 7/7/7 
f 1/1/1 7/7/7 8/8/8 
f 1/1/1 8/8/8 2/2/2 
f 2/2/2 9/9/9 10/10/10 3/3/3 
f 3/3/3 10/10/10 11/11/11 4/4/4 
f 4/4/4 11/11/11 12/12/12 5/5/5 
f 5/5/5 12/12/12 13/13/13 6/6/6 
f 6/6/6 13/13/13 14/14/14 7/7/7 
f 7/7/7 14/14/14 15/15/15 8/8/8 
f 8/8/8 15/15/15 9/9/9 2/2/2 
s 8
f 9/16/9 16/17/16 17/18/17 10/19/10 
f 10/19/10 17/18/17 18/20/18 11/21/11 
f 11/21/11 18/20/18 19/22/19 12/23/12 
f 12/23/12 19/22/19 20/24/20 13/25/13 
f 13/25/13 20/24/20 21/26/21 14/27/14 
f 14/27/14 21/26/21 22/28/22 15/29/15 
f 15/29/15 22/28/22 16/30/16 9/31/9 
s 4
f 23/9/23 24/2/24 25/3/25 26/10/26 
f 26/10/26 25/3/25 27/4/27 28/11/28 
f 28/11/28 27/4/27 29/5/29 30/12/30 
f 30/12/30 29/5/29 31/6/31 32/13/32 
f 32/13/32 31/6/31 33/7/33 34/14/34 
f 34/14/34 33/7/33 35/8/35 36/15/36 
f 36/15/36 35/8/35 24/2/24 23/9/23 
f 37/2/37 38/1/38 39/3/39 
f 39/3/39 38/1/38 40/4/40 
f 40/4/40 38/1/38 41/5/41 
f 41/5/41 38/1/38 42/6/42 
f 42/6/42 38/1/38 43/7/43 
f 43/7/43 38/1/38 44/8/44 
f 44/8/44 38/1/38 37/2/37 
s 8
f 16/17/16 45/32/45 46/33/46 17/18/17 
f 17/18/17 46/33/46 47/34/47 18/20/18 
f 18/20/18 47/34/47 48/35/48 19/22/19 
f 19/22/19 48/35/48 49/36/49 20/24/20 
f 20/24/20 49/36/49 50/37/50 21/26/21 
f 21/26/21 50/37/50 51/38/51 22/28/22 
f 22/28/22 51/38/51 45/39/45 16/30/16 
f 45/32/45 52/40/52 53/41/53 46/33/46 
f 46/33/46 53/41/53 54/42/54 47/34/47 
f 47/34/47 54/42/54 55/43/55 48/35/48 
f 48/35/48 55/43/55 56/44/56 49/36/49 
f 49/36/49 56/44/56 57/45/57 50/37/50 
f 50/37/50 57/45/57 58/46/58 51/38/51 
f 51/38/51 58/46/58 52/47/52 45/39/45 
f 59/48/59 23/49/23 26/50/26 60/51/60 
f 60/51/60 26/50/26 28/52/28 61/53/61 
f 61/53/61 28/52/28 30/54/30 62/55/62 
f 62/55/62 30/54/30 32/56/32 63/57/63 
f 63/57/63 32/56/32 34/58/34 64/59/64 
f 64/59/64 34/58/34 36/60/36 65/61/65 
f 65/61/65 36/60/36 23/62/23 59/63/59 
f 52/40/52 59/48/59 60/51/60 53/41/53 
f 53/41/53 60/51/60 61/53/61 54/42/54 
f 54/42/54 61/53/61 62/55/62 55/43/55 
f 55/43/55 62/55/62 63/57/63 56/44/56 
f 56/44/56 63/57/63 64/59/64 57/45/57 
f 57/45/57 64/59/64 65/61/65 58/46/58 
f 58/46/58 65/61/65 59/63/59 52/47/52 
s off
f 25/3/25 24/2/24 37/2/37 39/3/39 
f 24/2/24 35/8/35 44/8/44 37/2/37 
f 35/8/35 33/7/33 43/7/43 44/8/44 
f 33/7/33 31/6/31 42/6/42 43/7/43 
f 31/6/31 29/5/29 41/5/41 42/6/42 
f 29/5/29 27/4/27 40/4/40 41/5/41 
f 27/4/27 25/3/25 39/3/39 40/4/40 
s 4
f 66/1/1 67/2/66 68/3/3 
f 66/1/1 68/3/3 69/4/4 
f 66/1/1 69/4/4 70/5/5 
f 66/1/1 70/5/5 71/6/6 
f 66/1/1 71/6/6 72/7/7 
f 66/1/1 72/7/7 73/8/8 
f 66/1/1 73/8/8 67/2/66 
f 67/2/66 74/9/9 75/10/10 68/3/3 
f 68/3/3 75/10/10 76/11/11 69/4/4 
f 69/4/4 76/11/11 77/12/12 70/5/5 
f 70/5/5 77/12/12 78/13/13 71/6/6 
f 71/6/6 78/13/13 79/14/14 72/7/7 
f 72/7/7 79/14/14 80/15/15 73/8/8 
f 73/8/8 80/15/15 74/9/9 67/2/66 
s 8
f 74/16/9 81/17/67 82/18/17 75/19/10 
f 75/19/10 82/18/17 83/20/18 76/21/11 
f 76/21/11 83/20/18 84/22/19 77/23/12 
f 77/23/12 84/22/19 85/24/20 78/25/13 
f 78/25/13 85/24/20 86/26/21 79/27/14 
f 79/27/14 86/26/21 87/28/22 80/29/15 
f 80/29/15 87/28/22 81/30/67 74/31/9 
s 4
f 88/9/68 89/2/24 90/3/25 91/10/26 
f 91/10/26 90/3/25 92/4/27 93/11/69 
f 93/11/69 92/4/27 94/5/29 95/12/70 
f 95/12/70 94/5/29 96/6/31 97/13/71 
f 97/13/71 96/6/31 98/7/33 99/14/72 
f 99/14/72 98/7/33 100/8/35 101/15/73 
f 101/15/73 100/8/35 89/2/24 88/9/68 
f 102/2/74 103/1/75 104/3/39 
f 104/3/39 103/1/75 105/4/40 
f 105/4/40 103/1/75 106/5/41 
f 106/5/41 103/1/75 107/6/42 
f 107/6/42 103/1/75 108/7/43 
f 108/7/43 103/1/75 109/8/44 
f 109/8/44 103/1/75 102/2/74 
s 8
f 81/17/67 110/32/76 111/33/46 82/18/17 
f 82/18/17 111/33/46 112/34/47 83/20/18 
f 83/20/18 112/34/47 113/35/48 84/22/19 
f 84/22/19 113/35/48 114/36/49 85/24/20 
f 85/24/20 114/36/49 115/37/50 86/26/21 
f 86/26/21 115/37/50 116/38/51 87/28/22 
f 87/28/22 116/38/51 110/39/76 81/30/67 
f 110/32/76 117/40/77 118/41/53 111/33/46 
f 111/33/46 118/41/53 119/42/54 112/34/47 
f 112/34/47 119/42/54 120/43/55 113/35/48 
f 113/35/48 120/43/55 121/44/56 114/36/49 
f 114/36/49 121/44/56 122/45/57 115/37/50 
f 115/37/50 122/45/57 123/46/78 116/38/51 
f 116/38/51 123/46/78 117/47/77 110/39/76 
f 124/48/59 88/49/68 91/50/26 125/51/79 
f 125/51/79 91/50/26 93/52/69 126/53/80 
f 126/53/80 93/52/69 95/54/70 127/55/62 
f 127/55/62 95/54/70 97/56/71 128/57/63 
f 128/57/63 97/56/71 99/58/72 129/59/81 
f 129/59/81 99/58/72 101/60/73 130/61/65 
f 130/61/65 101/60/73 88/62/68 124/63/59 
f 117/40/77 124/48/59 125/51/79 118/41/53 
f 118/41/53 125/51/79 126/53/80 119/42/54 
f 119/42/54 126/53/80 127/55/62 120/43/55 
f 120/43/55 127/55/62 128/57/63 121/44/56 
f 121/44/56 128/57/63 129/59/81 122/45/57 
f 122/45/57 129/59/81 130/61/65 123/46/78 
f 123/46/78 130/61/65 124/63/59 117/47/77 
s off
f 90/3/25 89/2/24 102/2/74 104/3/39 
f 89/2/24 100/8/35 109/8/44 102/2/74 
f 100/8/35 98/7/33 108/7/43 109/8/44 
f 98/7/33 96/6/31 107/6/42 108/7/43 
f 96/6/31 94/5/29 106/5/41 107/6/42 
f 94/5/29 92/4/27 105/4/40 106/5/41 
f 92/4/27 90/3/25 104/3/39 105/4/40 
f 131/64/82 132/65/83 133/66/84 134/67/85 
f 131/64/82 135/68/86 136/69/87 
f 131/64/82 136/69/87 137/70/88 132/65/83 
f 138/71/89 139/72/90 140/73/91 
f 138/71/89 140/73/91 141/74/92 142/75/93 
f 142/75/93 141/74/92 143/76/94 
f 142/75/93 143/76/94 144/77/95 145/78/96 
f 134/67/85 146/79/97 147/80/98 
f 134/67/85 147/80/98 135/68/86 131/64/82 
f 135/16/86 148/81/99 149/82/100 136/83/87 
f 136/83/87 149/82/100 150/84/101 137/85/88 
f 139/86/90 151/87/102 152/88/103 140/89/91 
f 140/89/91 152/88/103 153/90/104 141/91/92 
f 141/91/92 153/90/104 154/92/105 143/93/94 
f 143/93/94 154/92/105 155/94/106 144/95/95 
f 146/96/97 156/97/107 157/98/108 147/99/98 
f 147/99/98 157/98/108 148/100/99 135/31/86 
f 158/73/109 159/71/110 160/72/111 
f 160/72/111 159/71/110 161/101/112 162/102/113 
f 163/69/114 164/64/115 165/68/116 
f 165/68/116 164/64/115 166/67/117 167/80/118 
f 167/80/118 166/67/117 168/79/119 
f 168/79/119 166/67/117 169/103/120 170/104/121 
f 171/76/122 172/75/123 173/74/124 
f 173/74/124 172/75/123 159/71/110 158/73/109 
f 172/75/123 174/105/125 161/101/112 159/71/110 
f 132/65/83 175/106/126 176/107/127 133/66/84 
f 137/70/88 177/108/128 175/106/126 132/65/83 
f 178/109/129 146/79/97 134/67/85 133/66/84 
f 162/110/113 179/111/113 180/112/130 181/113/131 
f 182/114/132 171/115/122 183/116/107 184/117/106 
f 161/101/112 185/118/112 179/119/113 162/102/113 
f 174/105/125 172/75/123 171/76/122 182/120/132 
f 174/105/125 186/121/125 185/118/112 161/101/112 
f 187/122/95 178/109/129 133/66/84 176/107/127 
f 188/123/132 182/114/132 184/117/106 189/124/106 
f 186/121/125 174/105/125 182/120/132 188/125/132 
f 175/106/126 190/126/133 191/127/96 176/107/127 
f 177/108/128 192/128/134 190/126/133 175/106/126 
f 179/111/113 193/129/135 194/130/136 180/112/130 
f 185/118/112 195/131/112 193/132/135 179/119/113 
f 186/121/125 196/133/125 195/131/112 185/118/112 
f 144/77/95 197/134/137 191/127/96 145/78/96 
f 170/135/121 198/136/121 199/137/106 200/138/106 
f 169/103/120 196/133/125 198/139/121 170/104/121 
f 201/140/138 138/71/89 142/75/93 145/78/96 
f 202/141/139 139/72/90 138/71/89 201/140/138 
f 203/142/135 163/143/114 204/144/102 205/145/131 
f 206/146/112 164/64/115 163/69/114 203/147/135 
f 169/103/120 166/67/117 164/64/115 206/146/112 
f 190/126/133 201/140/138 145/78/96 191/127/96 
f 192/128/134 202/141/139 201/140/138 190/126/133 
f 193/129/135 203/142/135 205/145/131 194/130/136 
f 195/131/112 206/146/112 203/147/135 193/132/135 
f 196/133/125 169/103/120 206/146/112 195/131/112 
f 197/134/137 187/122/95 176/107/127 191/127/96 
f 198/136/121 188/123/132 189/124/106 199/137/106 
f 196/133/125 186/121/125 188/125/132 198/139/121 
f 148/81/99 207/148/99 208/149/100 149/82/100 
f 149/82/100 208/149/100 181/113/131 150/84/101 
f 151/87/102 204/144/102 209/150/103 152/88/103 
f 152/88/103 209/150/103 210/151/104 153/90/104 
f 153/90/104 210/151/104 211/152/105 154/92/105 
f 154/92/105 211/152/105 200/138/106 155/94/106 
f 156/97/107 183/116/107 212/153/108 157/98/108 
f 157/98/108 212/153/108 207/154/99 148/100/99 
f 213/155/140 177/156/128 137/85/88 150/84/101 
f 156/97/107 146/96/97 178/157/129 214/158/106 
f 214/158/106 178/157/129 187/159/95 215/160/106 
f 216/161/141 192/162/134 177/156/128 213/155/140 
f 217/163/106 197/164/137 144/95/95 155/94/106 
f 151/87/102 139/86/90 202/165/139 218/166/142 
f 218/166/142 202/165/139 192/162/134 216/161/141 
f 215/160/106 187/159/95 197/164/137 217/163/106 
f 180/112/130 213/155/140 150/84/101 181/113/131 
f 183/116/107 156/97/107 214/158/106 184/117/106 
f 184/117/106 214/158/106 215/160/106 189/124/106 
f 194/130/136 216/161/141 213/155/140 180/112/130 
f 199/137/106 217/163/106 155/94/106 200/138/106 
f 204/144/102 151/87/102 218/166/142 205/145/131 
f 205/145/131 218/166/142 216/161/141 194/130/136 
f 189/124/106 215/160/106 217/163/106 199/137/106 
f 207/148/99 158/49/109 160/167/111 208/149/100 
f 208/149/100 160/167/111 162/110/113 181/113/131 
f 204/144/102 163/143/114 165/168/116 209/150/103 
f 209/150/103 165/168/116 167/169/118 210/151/104 
f 210/151/104 167/169/118 168/170/119 211/152/105 
f 211/152/105 168/170/119 170/135/121 200/138/106 
f 183/116/107 171/115/122 173/171/124 212/153/108 
f 212/153/108 173/171/124 158/62/109 207/154/99 
# 194 polygons - 36 triangles

