# 3ds Max Wavefront OBJ Exporter v0.97b - (c)2007 guruware
# File Created: 08.12.2017 19:40:26

mtllib meeple.mtl

#
# object Box001
#

v  -6.3130 -9.9782 0.0073
v  -6.3130 -0.5241 0.0073
v  6.3130 -0.5241 0.0073
v  6.3130 -9.9782 0.0073
v  -6.2767 -5.7582 38.1647
v  6.2767 -5.7582 38.1647
v  6.2925 0.0000 38.1647
v  -6.2953 0.0000 38.1647
v  -5.0004 -13.6223 12.1817
v  5.1469 -13.6223 12.1817
v  5.1469 -20.0426 12.1817
v  -5.0004 -19.9426 12.1817
v  -7.4328 -10.2234 9.1214
v  -7.4328 0.0000 9.1214
v  -7.0883 0.0000 8.9742
v  -6.3130 -0.5241 8.6429
v  -6.3130 -9.9782 8.6429
v  7.4328 -10.2234 9.1214
v  6.3130 -9.9782 8.6429
v  -6.5052 -0.5241 4.4674
v  -6.5052 -9.9782 4.4674
v  6.3130 -0.5241 8.6429
v  6.1208 -0.5241 4.4674
v  6.1208 -9.9782 4.4674
v  6.2767 -10.2234 18.9116
v  -6.2767 -10.2234 18.9116
v  7.4328 -10.2234 18.9111
v  7.4328 -10.2234 27.9282
v  6.2767 -12.3410 27.3057
v  -7.4328 -10.2234 27.9282
v  -6.2767 -12.3410 27.3057
v  -7.4328 -10.2234 18.9675
v  7.4328 0.0000 18.9051
v  7.4328 0.0000 27.7274
v  -7.4328 0.0000 27.9282
v  -7.4328 0.0000 27.7286
v  5.1469 -10.4856 19.9507
v  -5.0004 -10.4856 19.9507
v  5.1469 -12.0788 26.2666
v  -5.0004 -12.0788 26.2666
v  5.1469 -12.6259 17.4046
v  -5.0004 -12.6259 17.4046
v  5.1469 -17.5836 21.6075
v  -5.0004 -17.5836 21.6075
v  6.2767 -5.7582 27.9282
v  -6.2767 -5.7582 27.9282
v  7.4328 0.0000 27.9282
v  6.2925 0.0000 27.9282
v  6.2767 -5.7582 28.8057
v  -6.2767 -5.7582 28.8057
v  6.2925 0.0000 28.8057
v  -6.2953 0.0000 28.8057
v  -7.4328 0.0000 19.2583
v  7.4328 0.0000 9.1214
v  7.0883 0.0000 8.9742
v  -6.2953 0.0000 27.9282
v  -6.3130 9.9782 0.0073
v  6.3130 9.9782 0.0073
v  6.3130 0.5241 0.0073
v  -6.3130 0.5241 0.0073
v  -6.2767 5.7582 38.1647
v  6.2767 5.7582 38.1647
v  -5.0004 13.6223 12.1817
v  -5.0004 19.9426 12.1817
v  5.1469 20.0426 12.1817
v  5.1469 13.6223 12.1817
v  -7.4328 10.2234 9.1214
v  -6.3130 9.9782 8.6429
v  -6.3130 0.5241 8.6429
v  7.4328 10.2234 9.1214
v  6.3130 9.9782 8.6429
v  -6.5052 9.9782 4.4674
v  -6.5052 0.5241 4.4674
v  6.1208 0.5241 4.4674
v  6.3130 0.5241 8.6429
v  6.1208 9.9782 4.4674
v  -6.2767 10.2234 18.9116
v  6.2767 10.2234 18.9116
v  7.4328 10.2234 18.9111
v  6.2767 12.3410 27.3057
v  7.4328 10.2234 27.9282
v  -6.2767 12.3410 27.3057
v  -7.4328 10.2234 27.9282
v  -7.4328 10.2234 18.9675
v  -5.0004 10.4856 19.9507
v  5.1469 10.4856 19.9507
v  5.1469 12.0788 26.2666
v  -5.0004 12.0788 26.2666
v  -5.0004 12.6259 17.4046
v  5.1469 12.6259 17.4046
v  5.1469 17.5836 21.6075
v  -5.0004 17.5836 21.6075
v  -6.2767 5.7582 27.9282
v  6.2767 5.7582 27.9282
v  -6.2767 5.7582 28.8057
v  6.2767 5.7582 28.8057
# 96 vertices

vn -0.5636 -0.5797 -0.5885
vn -0.5636 0.5797 -0.5885
vn 0.5907 0.5752 -0.5659
vn 0.5907 -0.5752 -0.5659
vn -0.5769 -0.5777 0.5774
vn 0.5769 -0.5777 0.5774
vn 0.7074 0.0000 0.7068
vn -0.7074 0.0000 0.7068
vn -0.5983 0.4582 -0.6574
vn 0.5983 0.4582 -0.6574
vn 0.5507 -0.7131 -0.4338
vn -0.5632 -0.6976 -0.4429
vn -0.6395 -0.6124 -0.4648
vn -0.8345 0.0000 -0.5510
vn -0.2863 0.0000 -0.9581
vn -0.4626 0.4206 -0.7804
vn -0.4258 -0.6325 -0.6470
vn 0.6395 -0.6124 -0.4648
vn 0.4229 -0.6115 -0.6688
vn -0.7168 0.6973 0.0011
vn -0.7168 -0.6973 0.0011
vn 0.4563 0.3982 -0.7958
vn 0.6968 0.7173 -0.0010
vn 0.6968 -0.7173 -0.0010
vn -0.0000 -0.9744 -0.2249
vn -0.0053 -0.9751 -0.2216
vn 0.7071 -0.7071 0.0000
vn 0.7106 -0.1407 0.6894
vn 0.4813 -0.7886 0.3826
vn -0.7106 -0.1407 0.6894
vn -0.4813 -0.7886 0.3826
vn -0.7071 -0.7071 -0.0000
vn 1.0000 0.0000 0.0000
vn -0.7071 0.0000 0.7071
vn -1.0000 0.0000 -0.0000
vn 0.3272 -0.6691 -0.6673
vn -0.3272 -0.6691 -0.6673
vn 0.3121 -0.9423 -0.1213
vn -0.3121 -0.9423 -0.1213
vn 0.4278 0.7678 0.4770
vn -0.6161 0.0545 -0.7858
vn 0.1269 0.4012 0.9071
vn -0.5480 -0.8365 0.0002
vn 0.4397 0.8960 0.0623
vn -0.5806 0.7492 0.3187
vn 0.7138 0.0993 0.6933
vn -0.5793 -0.2821 0.7647
vn 0.3015 -0.3020 0.9044
vn -0.3016 -0.3021 0.9043
vn 0.7071 0.0000 0.7071
vn 0.7068 0.0000 0.7074
vn 0.7066 -0.7076 -0.0000
vn -0.7064 -0.7078 -0.0000
vn -1.0000 0.0000 0.0000
vn -1.0000 -0.0000 -0.0000
vn 0.8345 0.0000 -0.5510
vn 0.2863 0.0000 -0.9581
vn -0.7066 0.0000 0.7076
vn -0.5769 0.5777 0.5774
vn 0.5769 0.5777 0.5774
vn -0.5983 -0.4582 -0.6574
vn -0.5632 0.6976 -0.4429
vn 0.5507 0.7131 -0.4338
vn 0.5983 -0.4582 -0.6574
vn -0.6395 0.6124 -0.4648
vn -0.4258 0.6325 -0.6470
vn -0.4626 -0.4206 -0.7804
vn 0.6395 0.6124 -0.4648
vn 0.4229 0.6115 -0.6688
vn 0.4563 -0.3982 -0.7958
vn -0.0053 0.9751 -0.2216
vn -0.0000 0.9744 -0.2249
vn 0.7071 0.7071 0.0000
vn 0.4813 0.7886 0.3826
vn 0.7106 0.1407 0.6894
vn -0.4813 0.7886 0.3826
vn -0.7106 0.1407 0.6894
vn -0.7071 0.7071 -0.0000
vn -0.3272 0.6691 -0.6673
vn 0.3272 0.6691 -0.6673
vn 0.3121 0.9423 -0.1213
vn -0.3121 0.9423 -0.1213
vn -0.6161 -0.0545 -0.7858
vn 0.4278 -0.7678 0.4770
vn 0.1269 -0.4012 0.9071
vn -0.5480 0.8365 0.0002
vn -0.5806 -0.7492 0.3187
vn 0.4397 -0.8960 0.0623
vn 0.7138 -0.0993 0.6933
vn -0.5793 0.2821 0.7647
vn -0.3016 0.3021 0.9043
vn 0.3015 0.3020 0.9044
vn -0.7064 0.7078 -0.0000
vn 0.7066 0.7076 -0.0000
# 94 vertex normals

vt 1.0000 0.0000 0.0000
vt 1.0000 1.0000 0.0000
vt 0.0000 1.0000 0.0000
vt 0.0000 0.0000 0.0000
vt 0.9263 0.9611 0.0000
vt 0.0735 0.9611 0.0000
vt 1.0000 0.9777 0.0000
vt 1.0000 0.5205 0.0000
vt 0.0000 0.5235 0.0000
vt 0.0000 0.5205 0.0000
vt 0.9777 0.2813 0.0000
vt 0.9777 0.5301 0.0000
vt 1.0000 0.5235 0.0000
vt 0.0223 1.0000 0.0000
vt 0.0223 0.9894 0.0000
vt 0.0223 0.5390 0.0000
vt 0.9777 0.0000 0.0000
vt 0.9777 0.5408 0.0000
vt 0.0223 0.0000 0.0000
vt 0.0000 0.9777 0.0000
# 20 texture coords

o Box001
g Box001
usemtl wire_140088225
s 2
f 1/1/1 2/2/2 3/3/3 4/4/4 
s 4
f 5/4/5 6/1/6 7/5/7 8/6/8 
s 8
f 9/4/9 10/1/10 11/2/11 12/3/12 
s off
f 13/1/13 14/7/14 15/2/15 16/2/16 17/1/17 
f 18/4/18 13/1/13 17/1/17 19/4/19 
f 17/1/17 16/2/16 20/2/20 21/1/21 
f 16/2/16 22/3/22 23/3/23 20/2/20 
f 22/3/22 19/4/19 24/4/24 23/3/23 
f 19/4/19 17/1/17 21/1/21 24/4/24 
f 20/2/20 2/2/2 1/1/1 21/1/21 
f 23/3/23 3/3/3 2/2/2 20/2/20 
f 24/4/24 4/4/4 3/3/3 23/3/23 
f 21/1/21 1/1/1 4/4/4 24/4/24 
f 13/4/13 18/1/18 25/1/25 26/4/26 
f 27/8/27 28/2/28 29/2/29 25/1/25 
f 28/2/28 30/3/30 31/3/31 29/2/29 
f 32/9/32 13/4/13 26/4/26 
f 25/1/25 18/1/18 27/8/27 
s 16
f 27/10/27 33/11/33 34/12/33 
s off
f 26/4/26 31/3/31 30/3/30 32/9/32 
s 64
f 32/13/32 30/2/30 35/14/34 36/15/35 
s off
f 26/4/26 25/1/25 37/1/36 38/4/37 
f 25/1/25 29/2/29 39/2/38 37/1/36 
f 29/2/29 31/3/31 40/3/39 39/2/38 
f 31/3/31 26/4/26 38/4/37 40/3/39 
f 38/4/37 37/1/36 41/1/40 42/4/41 
f 37/1/36 39/2/38 43/2/42 41/1/40 
f 39/2/38 40/3/39 44/3/43 43/2/42 
f 40/3/39 38/4/37 42/4/41 44/3/43 
f 42/4/41 41/1/40 41/1/44 42/4/45 
f 41/1/40 43/2/42 43/2/46 41/1/44 
f 43/2/42 44/3/43 44/3/47 43/2/46 
f 44/3/43 42/4/41 42/4/45 44/3/47 
f 42/4/45 41/1/44 10/1/10 9/4/9 
f 41/1/44 43/2/46 11/2/11 10/1/10 
f 43/2/46 44/3/47 12/3/12 11/2/11 
f 44/3/47 42/4/45 9/4/9 12/3/12 
f 30/4/30 28/1/28 45/1/48 46/4/49 
f 28/1/28 47/7/50 48/5/51 45/1/48 
f 46/4/49 45/1/48 49/1/52 50/4/53 
f 45/1/48 48/5/51 51/5/33 49/1/52 
f 49/1/52 6/1/6 5/4/5 50/4/53 
f 50/4/53 5/4/5 8/6/8 52/6/54 
s 64
f 32/13/32 36/15/35 53/16/55 
s 16
f 27/10/27 18/4/18 54/17/56 33/11/33 
f 47/18/50 28/3/28 27/10/27 34/12/33 
s 64
f 14/19/14 13/1/13 32/13/32 53/16/55 
s off
f 55/3/57 22/3/22 16/2/16 15/2/15 
f 54/20/56 18/4/18 19/4/19 22/3/22 55/3/57 
f 35/20/34 30/4/30 46/4/49 56/6/58 
f 56/6/58 46/4/49 50/4/53 52/6/54 
f 7/5/7 6/1/6 49/1/52 51/5/33 
s 2
f 57/1/2 58/4/3 59/3/4 60/2/1 
s 4
f 61/4/59 8/6/8 7/5/7 62/1/60 
s 8
f 63/4/61 64/3/62 65/2/63 66/1/64 
s off
f 67/1/65 68/1/66 69/2/67 15/2/15 14/7/14 
f 70/4/68 71/4/69 68/1/66 67/1/65 
f 68/1/66 72/1/20 73/2/21 69/2/67 
f 69/2/67 73/2/21 74/3/24 75/3/70 
f 75/3/70 74/3/24 76/4/23 71/4/69 
f 71/4/69 76/4/23 72/1/20 68/1/66 
f 73/2/21 72/1/20 57/1/2 60/2/1 
f 74/3/24 73/2/21 60/2/1 59/3/4 
f 76/4/23 74/3/24 59/3/4 58/4/3 
f 72/1/20 76/4/23 58/4/3 57/1/2 
f 67/4/65 77/4/71 78/1/72 70/1/68 
f 79/8/73 78/1/72 80/2/74 81/2/75 
f 81/2/75 80/2/74 82/3/76 83/3/77 
f 84/9/78 77/4/71 67/4/65 
f 78/1/72 79/8/73 70/1/68 
s 16
f 79/10/73 34/12/33 33/11/33 
s off
f 77/4/71 84/9/78 83/3/77 82/3/76 
s 64
f 84/13/78 36/15/35 35/14/34 83/2/77 
s off
f 77/4/71 85/4/79 86/1/80 78/1/72 
f 78/1/72 86/1/80 87/2/81 80/2/74 
f 80/2/74 87/2/81 88/3/82 82/3/76 
f 82/3/76 88/3/82 85/4/79 77/4/71 
f 85/4/79 89/4/83 90/1/84 86/1/80 
f 86/1/80 90/1/84 91/2/85 87/2/81 
f 87/2/81 91/2/85 92/3/86 88/3/82 
f 88/3/82 92/3/86 89/4/83 85/4/79 
f 89/4/83 89/4/87 90/1/88 90/1/84 
f 90/1/84 90/1/88 91/2/89 91/2/85 
f 91/2/85 91/2/89 92/3/90 92/3/86 
f 92/3/86 92/3/90 89/4/87 89/4/83 
f 89/4/87 63/4/61 66/1/64 90/1/88 
f 90/1/88 66/1/64 65/2/63 91/2/89 
f 91/2/89 65/2/63 64/3/62 92/3/90 
f 92/3/90 64/3/62 63/4/61 89/4/87 
f 83/4/77 93/4/91 94/1/92 81/1/75 
f 81/1/75 94/1/92 48/5/51 47/7/50 
f 93/4/91 95/4/93 96/1/94 94/1/92 
f 94/1/92 96/1/94 51/5/33 48/5/51 
f 96/1/94 95/4/93 61/4/59 62/1/60 
f 95/4/93 52/6/54 8/6/8 61/4/59 
s 64
f 84/13/78 53/16/55 36/15/35 
s 16
f 79/10/73 33/11/33 54/17/56 70/4/68 
f 47/18/50 34/12/33 79/10/73 81/3/75 
s 64
f 14/19/14 53/16/55 84/13/78 67/1/65 
s off
f 55/3/57 15/2/15 69/2/67 75/3/70 
f 54/20/56 55/3/57 75/3/70 71/4/69 70/4/68 
f 35/20/34 56/6/58 93/4/91 83/4/77 
f 56/6/58 52/6/54 95/4/93 93/4/91 
f 7/5/7 51/5/33 96/1/94 62/1/60 
# 96 polygons - 8 triangles

